<svg xmlns="http://www.w3.org/2000/svg" width="840" height="1000" viewBox="0 0 840 1000"><defs><pattern id="g" width="42" height="42" patternUnits="userSpaceOnUse"><path d="M42 0H0V42" fill="none" stroke="#cec6b9" stroke-width=".5"/></pattern><pattern id="w" width="6" height="6" patternUnits="userSpaceOnUse"><path d="M0 0L6 6M-2 4L2 8M4-2L8 2" stroke="#8d8e80" stroke-width=".7"/></pattern></defs><path fill="#dcd7cc" d="M0 0h840v1000H0z"/><path fill="url(#g)" d="M0 0h840v1000H0z"/><circle cx="420" cy="478" r="300" stroke="#c7bfb1" fill="none"/><path d="M315 194L250 225 181 255 99 599 192 625 259 396 269 756Q420 807 571 756L581 396 648 625 741 599 659 255 590 225 525 194 478 255H362Z" fill="#717567" stroke="#434b43" stroke-width="3"/><path d="M315 194L250 225 181 255 99 599 192 625 259 396 269 756Q420 807 571 756L581 396 648 625 741 599 659 255 590 225 525 194 478 255H362Z" fill="url(#w)"/><path d="M315 194L365 289 420 261 475 289 525 194 480 170H360Z" fill="#505a50" stroke="#434b43" stroke-width="3"/><path d="M360 170Q420 205 480 170L477 218 420 261 363 218Z" fill="#353f39"/><path d="M420 261V785" stroke="#d3d0bb" stroke-width="4"/><path d="M428 264V784M259 396L250 225M581 396L590 225M274 745Q420 794 566 745" fill="none" stroke="#a5a694" stroke-dasharray="4 4"/><path d="M293 516h97v110h-97zM450 516h97v110h-97z" fill="#626a5e" stroke="#a5a694" stroke-width="1.5"/><path d="M292 520L340 540 390 520M450 520L498 540 548 520" fill="none" stroke="#afb09b"/><path d="M100 599L192 625 184 649 94 623Z M648 625L741 599 747 623 656 649Z" fill="#4b574c"/><g fill="none" stroke="#7a1e2c" stroke-width="1"><path d="M315 194L277 123H117M566 744L629 842H747M192 625H65M525 194L572 105H730"/><circle cx="315" cy="194" r="5"/><circle cx="566" cy="744" r="5"/></g><g font-family="sans-serif" font-size="10" letter-spacing="2" fill="#685f53"><text x="117" y="112">01 / CONSTRUCTION</text><text x="629" y="861">02 / FINISHING</text><text x="45" y="947">HUGAMEX - GARMENT STUDY</text><text x="572" y="94">MATERIAL DETAIL</text></g><path d="M45 48H135M45 48V138M795 952H705M795 952V862" stroke="#7a1e2c" fill="none"/></svg>